{
  "title": "Hercules (2014) EXTENDED CUT 720p Blu-Ray [Dual-Audio][English 5",
  "uid": 11499674,
  "size": 1070216142,
  "categoryP": "video",
  "categoryS": "hd___movies",
  "magnet": "?xt=urn:btih:850e245d5d730e555c95f6a2bed533fd9ff2a3aa&amp;dn=Hercules+%282014%29+EXTENDED+CUT+720p+Blu-Ray+%5BDual-Audio%5D%5BEnglish+5&amp;tr=udp%3A%2F%2Ftracker.openbittorrent.com%3A80&amp;tr=udp%3A%2F%2Fopen.demonii.com%3A1337&amp;tr=udp%3A%2F%2Ftracker.coppersurfer.tk%3A6969&amp;tr=udp%3A%2F%2Fexodus.desync.com%3A6969",
  "seeders": 119,
  "leechers": 49,
  "uploader": "inovai",
  "files": 3,
  "time": 1416324005,
  "description": "Hercules (2014) EXTENDED CUT 720p Blu-Ray [Dual-Audio][English 5.1 + Hindi] - Mafiaking - Team TellyTNT ExClusive\n\nHindi Line Audio\n\nScreenshots:\n &lt;a href=&quot;\nhttp://m.primetimeshow.in/share-EBEC_546B552B.html&quot; rel=&quot;nofollow&quot; target=&quot;_NEW&quot;&gt;\nhttp://m.primetimeshow.in/share-EBEC_546B552B.html&lt;/a&gt;\n &lt;a href=&quot;\nhttp://m.primetimeshow.in/share-7AD5_546B552B.html&quot; rel=&quot;nofollow&quot; target=&quot;_NEW&quot;&gt;\nhttp://m.primetimeshow.in/share-7AD5_546B552B.html&lt;/a&gt;\n &lt;a href=&quot;\nhttp://m.primetimeshow.in/share-0B6D_546B552B.html&quot; rel=&quot;nofollow&quot; target=&quot;_NEW&quot;&gt;\nhttp://m.primetimeshow.in/share-0B6D_546B552B.html&lt;/a&gt;\n &lt;a href=&quot;\nhttp://m.primetimeshow.in/share-83F9_546B552B.html&quot; rel=&quot;nofollow&quot; target=&quot;_NEW&quot;&gt;\nhttp://m.primetimeshow.in/share-83F9_546B552B.html&lt;/a&gt;\n &lt;a href=&quot;\nhttp://m.primetimeshow.in/share-1D8A_546B552B.html&quot; rel=&quot;nofollow&quot; target=&quot;_NEW&quot;&gt;\nhttp://m.primetimeshow.in/share-1D8A_546B552B.html&lt;/a&gt;\n\nRatings: 6.2/10\n\nGENRE: Action | Adventure\n\n\nGeneral\nUnique ID : 178184381734276257926160662865042534310 (0x860D104ABD052696B8DFD84645CCEFA6)\nComplete name : Hercules (2014) EXTENDED CUT 720p Blu-Ray [Dual-Audio][English 5.1 + Hindi] - Mafiaking - Team TellyTNT ExClusive.mkv\nFormat : Matroska\nFormat version : Version 4 / Version 2\nFile size : 1 007 MiB\nDuration : 1h 41mn\nOverall bit rate : 1 386 Kbps\nMovie name : Hercules (2014) EXTENDED CUT 720p Blu-Ray [Dual-Audio][English 5.1 + Hindi] - Mafiaking - Team TellyTNT ExClusive\nEncoded date : UTC 2014-11-17 14:49:09\nWriting application : mkvmerge v7.0.0 ('Where We Going') 64bit built on Jun 9 2014 15:16:27\nWriting library : libebml v1.3.0 + libmatroska v1.4.1\n\n\nVideo\nID : 1\nFormat : AVC\nFormat/Info : Advanced Video Codec\nFormat profile : &lt;a class=&quot;__cf_email__&quot; href=&quot;/cdn-cgi/l/email-protection&quot; data-cfemail=&quot;5d15343a351d1169736c&quot;&gt;[email&amp;#160;protected]&lt;/a&gt;&lt;script cf-hash='f9e31' type=&quot;text/javascript&quot;&gt;\n/* &lt;![CDATA[ */!function(){try{var t=&quot;currentScript&quot;in document?document.currentScript:function(){for(var t=document.getElementsByTagName(&quot;script&quot;),e=t.length;e--;)if(t[e].getAttribute(&quot;cf-hash&quot;))return t[e]}();if(t&amp;&amp;t.previousSibling){var e,r,n,i,c=t.previousSibling,a=c.getAttribute(&quot;data-cfemail&quot;);if(a){for(e=&quot;&quot;,r=parseInt(a.substr(0,2),16),n=2;a.length-n;n+=2)i=parseInt(a.substr(n,2),16)^r,e+=String.fromCharCode(i);e=document.createTextNode(e),c.parentNode.replaceChild(e,c)}}}catch(u){}}();/* ]]&gt; */&lt;/script&gt;\nFormat settings, CABAC : Yes\nFormat settings, ReFrames : 4 frames\nCodec ID : V_MPEG4/ISO/AVC\nDuration : 1h 41mn\nBit rate : 1 000 Kbps\nWidth : 1 280 pixels\nHeight : 536 pixels\nDisplay aspect ratio : 2.40:1\nFrame rate mode : Constant\nFrame rate : 23.976 fps\nColor space : YUV\nChroma subsampling : 4:2:0\nBit depth : 8 bits\nScan type : Progressive\nBits/(Pixel*Frame) : 0.061\nStream size : 708 MiB (70%)\nTitle : Mafiaking\nLanguage : English\nDefault : Yes\nForced : No\n\n\nAudio #1\nID : 2\nFormat : MPEG Audio\nFormat version : Version 1\nFormat profile : Layer 3\nCodec ID : A_MPEG/L3\nCodec ID/Hint : MP3\nDuration : 1h 41mn\nBit rate mode : Constant\nBit rate : 192 Kbps\nChannel(s) : 2 channels\nSampling rate : 44.1 KHz\nCompression mode : Lossy\nStream size : 140 MiB (14%)\nTitle : Mafiaking\nLanguage : Hindi\nDefault : Yes\nForced : No\n\n\nAudio #2\nID : 3\nFormat : AC-3\nFormat/Info : Audio Coding 3\nMode extension : CM (complete main)\nFormat settings, Endianness : Big\nCodec ID : A_AC3\nDuration : 1h 41mn\nBit rate mode : Constant\nBit rate : 192 Kbps\nChannel(s) : 6 channels\nChannel positions : Front: L C R, Side: L R, LFE\nSampling rate : 48.0 KHz\nBit depth : 16 bits\nCompression mode : Lossy\nStream size : 140 MiB (14%)\nTitle : Mafiaking\nLanguage : English\nDefault : No\nForced : No\n\n\n\n\n\nSAMPLE WITH IN TORRENT\n\nThanks to Mafiaking - Team TellyTNT!!",
  "parsed": {
    "xt": "urn:btih:850e245d5d730e555c95f6a2bed533fd9ff2a3aa",
    "dn": "Hercules (2014) EXTENDED CUT 720p Blu-Ray [Dual-Audio][English 5",
    "tr": [
      "udp://exodus.desync.com:6969",
      "udp://open.demonii.com:1337",
      "udp://tracker.coppersurfer.tk:6969",
      "udp://tracker.openbittorrent.com:80"
    ],
    "infoHash": "850e245d5d730e555c95f6a2bed533fd9ff2a3aa",
    "infoHashBuffer": {
      "type": "Buffer",
      "data": [
        133,
        14,
        36,
        93,
        93,
        115,
        14,
        85,
        92,
        149,
        246,
        162,
        190,
        213,
        51,
        253,
        159,
        242,
        163,
        170
      ]
    },
    "name": "Hercules (2014) EXTENDED CUT 720p Blu-Ray [Dual-Audio][English 5",
    "announce": [
      "udp://exodus.desync.com:6969",
      "udp://open.demonii.com:1337",
      "udp://tracker.coppersurfer.tk:6969",
      "udp://tracker.openbittorrent.com:80"
    ],
    "urlList": []
  },
  "previous": 168,
  "peers": 1,
  "last_updated": "2016-12-25T06:33:50.292Z"
}